# xmcd CD database file
#
# Track frame offsets:
#	150
#	14310
#	27857
#	40597
#	55735
#	79222
#	95585
#	108627
#	117492
#	135987
#
# Disc length: 1969 seconds
#
# Revision: 0
# Processed by: cddbd v1.4PL0 Copyright (c) Steve Scherf et al.
# Submitted via: CDex 1.50
#
DISCID=7907af0a
DTITLE=Various Artist - Ladies of Jazz
DYEAR=1900
DGENRE=Jazz
TTITLE0=Billie Holiday - God Bless the Child
TTITLE1=Ella Fitzgerald - How High the Moon
TTITLE2=Dinah Washington/ Unforgettable
TTITLE3=Lena Horne - Stormy Weather
TTITLE4=Carmen McRae - New York State of Mind
TTITLE5=Sarah Vaughan - The Nearness of You
TTITLE6=Billie Holiday - My Man
TTITLE7=Ella Fitzgerald - Lover Come Back to Me
TTITLE8=Sarah Vaughan - In a sentimental Mood
TTITLE9=Lena Horne - Night and Day
EXTD=
EXTT0=
EXTT1=
EXTT2=
EXTT3=
EXTT4=
EXTT5=
EXTT6=
EXTT7=
EXTT8=
EXTT9=
PLAYORDER=
